<svg xmlns="http://www.w3.org/2000/svg" viewBox="0 0 292.36 252.24">
    <title>logo-branding</title>
    <g id="Camada_2" data-name="Camada 2">
        <g id="Camada_1-2" data-name="Camada 1">
            <path style="fill:#fff"
                d="M176.34,119.7c8.77,0,16.22-.15,23.65,0,32.35.75,54.53,26.31,50.66,58.46-1.71,14.22-3.41,28.54-11.91,40.77-14.71,21.16-34.38,33.33-60.81,33.28-41.15-.09-82.31,0-123.47-.05-25.7,0-46.62-14.83-52.75-38.43-2.08-8-1.8-16.78-1.51-25.17.2-6.23,6.38-11.52,12.55-12.55A10.94,10.94,0,0,1,25.83,186.9c0,3-.54,6-.37,9,1.14,19.32,16.6,32.17,37,30.33l4.3-29.81c.53-3.63,1-7.26,1.6-10.87,1.47-9,7-13.77,16.1-13.79,25.33-.06,50.66,0,76,0H224.4c-1.29-15-12.78-25.82-27.61-26.11-12-.23-24,0-36,0-30,0-60,.08-90,0-22-.08-39.56-8.8-50.12-28.64-3.19-6-5.61-13.15-5.82-19.85-.58-19,.66-38.32,9.92-55.39C39,15.44,60.94.33,91.63.24,131,.12,170.29.83,209.6,0c31.18-.64,56.3,21.21,57.68,52.7H279c7.87,0,12.25,3.09,13.24,9.29s-3.56,13.65-10,15.53a28.52,28.52,0,0,1-7.88,1c-21,.08-42,.12-63,0a7.62,7.62,0,0,0-7,3.55C195.43,94.25,186.31,106.33,176.34,119.7Zm-72.89-.16c13.26,0,25.58-.13,37.88.09a8.46,8.46,0,0,0,7.86-3.88c13.62-18.51,27.52-36.82,41.14-55.34,4-5.46,9-7.89,15.77-7.76,11.31.22,22.62.06,34,.06C238.75,37.79,224.9,26,208.67,25.91c-29.17-.11-58.33.05-87.5-.13-4,0-4.93,1.45-5.41,5.06C113,51.3,110,71.72,107.16,92.17,105.92,101,104.75,109.93,103.45,119.54Zm-15,106.6c1.69.17,2.82.39,4,.39,30.46,0,60.94.38,91.4-.13,16.57-.28,28.41-9.14,35.85-23.85a35.75,35.75,0,0,0,1.62-5H97.73a8.14,8.14,0,0,0-3,.08c-1,.45-2.49,1.33-2.62,2.2C90.79,208.5,89.69,217.21,88.49,226.14ZM90.63,26.43C70.48,23.58,48.07,40,44.07,60.32A224.92,224.92,0,0,0,40.51,86c-1.58,20.06,17.08,36.61,37.12,32.87C81.94,88.26,86.26,57.5,90.63,26.43Z"
            />
        </g>
    </g>
</svg>
