<?xml version="1.0" encoding="iso-8859-1"?>
<!-- Generator: Adobe Illustrator 19.0.0, SVG Export Plug-In . SVG Version: 6.00 Build 0)  -->
<svg version="1.1" id="Layer_1" xmlns="http://www.w3.org/2000/svg" xmlns:xlink="http://www.w3.org/1999/xlink" x="0px" y="0px"
	 viewBox="0 0 485 485" style="enable-background:new 0 0 485 485;" xml:space="preserve">
<g>
	<g>
		<path style="fill:#DD363B;" d="M432.5,452.5c0,0,0,11,0,25h-380c0-14,0-25,0-25s0.9-54.7,95-85c0,0,20.3,45,95,45s95-45,95-45
			C432.2,397.5,432.5,452.5,432.5,452.5z"/>
		<path style="fill:#58595B;" d="M352.5,52.5v80c-39.7,0-35-35-35-35h-150c0,0,4.7,35-35,35v-80c0,0,5.3-45,110-45
			S352.5,52.5,352.5,52.5z"/>
		<path style="fill:#846954;" d="M132.5,197.5c0,6.7,0.5,13.3,1.3,19.7c-15.5-2.1-31.3-16.9-31.3-29.7c0-13.8,13.4-20,30-20V197.5z"
			/>
		<path style="fill:#846954;" d="M352.5,167.5c16.6,0,30,6.2,30,20c0,12.8-15.8,27.6-31.3,29.7c0.8-6.4,1.3-13,1.3-19.7V167.5z"/>
		<path style="fill:#846954;" d="M292.5,337.5c10.9,12.2,45,30,45,30s-20.3,45-95,45s-95-45-95-45s34.1-17.8,45-30v-10v-21.8
			c0.2,0.2,0.5,0.3,0.7,0.4c14.4,7.3,31,11.4,49.3,11.4s34.9-4.1,49.3-11.4c0.2-0.1,0.5-0.2,0.7-0.4v21.8V337.5z"/>
		<path style="fill:#A18369;" d="M352.5,142.5v25v30c0,6.7-0.5,13.3-1.3,19.7v0.1c-5.4,39.1-26.6,71.8-58.7,88.4
			c-0.2,0.2-0.5,0.3-0.7,0.4c-14.4,7.3-31,11.4-49.3,11.4s-34.9-4.1-49.3-11.4c-0.2-0.1-0.5-0.2-0.7-0.4
			c-32.1-16.6-53.3-49.3-58.7-88.4v-0.1c-0.8-6.4-1.3-13-1.3-19.7v-30v-25v-10c39.7,0,35-35,35-35h150c0,0-4.7,35,35,35
			C352.5,138,352.5,142.1,352.5,142.5z"/>
	</g>
	<g>
		<path style="fill:#AFB6BB;" d="M222.5,157.5v25c0,11-9,20-20,20h-20c-11,0-20-9-20-20v-10v-15H222.5z"/>
		<path style="fill:#AFB6BB;" d="M322.5,172.5v10c0,11-9,20-20,20h-20c-11,0-20-9-20-20v-25h60V172.5z"/>
	</g>
	<g>
		<path style="fill:#231F20;" d="M340.4,360.552c-8.931-4.704-30.922-17.164-40.4-26.105v-24.298
			c30.418-17.386,51.203-48.561,57.822-86.708C375.028,218.505,390,202.356,390,187.5c0-15.043-11.308-25.026-30-27.094V52.06
			l-0.052-0.438C359.7,49.515,352.603,0,242.5,0S125.3,49.515,125.052,51.623L125,52.06v108.346c-18.692,2.068-30,12.051-30,27.094
			c0,14.856,14.972,31.005,32.178,35.94c6.619,38.146,27.405,69.322,57.822,86.708v24.299c-9.483,8.947-31.496,21.416-40.416,26.114
			c-97.483,31.626-99.543,89.368-99.583,91.816L45,485h395v-32.541C439.986,449.996,438.545,391.89,340.4,360.552z M255,150v18.638
			c-4.012-2.036-8.455-3.638-12.5-3.638s-8.488,1.603-12.5,3.638V150h-75v15h-15v-25.405c11.141-1.259,19.88-5.445,26.042-12.491
			c6.313-7.216,8.357-15.847,8.927-22.104h135.063c0.569,6.257,2.614,14.887,8.927,22.104c6.162,7.046,14.901,11.232,26.042,12.491
			V165h-15v-15H255z M315,165v17.5c0,6.893-5.607,12.5-12.5,12.5h-20c-6.893,0-12.5-5.607-12.5-12.5V165H315z M215,165v17.5
			c0,6.893-5.607,12.5-12.5,12.5h-20c-6.893,0-12.5-5.607-12.5-12.5V165H215z M375,187.5c0,6.131-6.637,14.48-15.286,19.081
			c0.185-3.085,0.286-31.099,0.286-31.099C373.367,177.356,375,184.268,375,187.5z M154.214,34.882
			C166.59,25.812,191.953,15,242.5,15s75.91,10.812,88.286,19.882c11.416,8.367,13.809,16.491,14.214,18.287v71.286
			c-6.431-1.002-11.355-3.389-14.679-7.144c-6.676-7.54-5.396-18.744-5.388-18.813L326.074,90H158.926l1.141,8.498
			c0.015,0.11,1.289,11.181-5.314,18.73c-3.326,3.802-8.274,6.218-14.752,7.227V53.169
			C140.405,51.373,142.798,43.249,154.214,34.882z M110,187.5c0-3.232,1.633-10.144,15-12.018c0,0,0.102,28.014,0.286,31.099
			C116.637,201.98,110,193.631,110,187.5z M141.3,216.777l-0.058-0.507c-0.836-6.688-1.242-12.827-1.242-18.77V180h15v2.5
			c0,15.164,12.337,27.5,27.5,27.5h20c13.834,0,25.311-10.271,27.217-23.586c4.586-3.319,10.246-6.414,12.783-6.414
			c2.518,0,8.185,3.1,12.784,6.42C257.193,199.733,268.668,210,282.5,210h20c15.163,0,27.5-12.336,27.5-27.5V180h15v17.5
			c0,5.943-0.406,12.083-1.242,18.77l-0.037,0.359c-5.226,37.115-25.136,67.138-54.666,82.409l-1.03,0.533l-0.066,0.066
			C274.213,306.514,258.923,310,242.5,310c-16.408,0-31.687-3.48-45.458-10.363l-1.097-0.599
			C166.455,283.788,146.559,253.823,141.3,216.777z M198.093,342.497l1.907-2.135v-23.049c13.218,5.099,27.464,7.687,42.5,7.687
			c15.043,0,29.295-2.59,42.5-7.685v23.047l1.907,2.135c8.658,9.691,29.001,21.693,40.031,27.818
			c-2.833,3.856-7.421,9.115-14.265,14.333C295.207,397.962,270.941,405,242.5,405s-52.707-7.038-70.173-20.353
			c-6.847-5.22-11.436-10.482-14.266-14.332C169.09,364.191,189.434,352.188,198.093,342.497z M425,470H60v-17.362
			c0.048-0.88,0.904-12.937,11.582-28.015c17.421-24.602,47.985-39.528,72.51-48.069C152.818,389.75,179.673,420,242.5,420
			c62.868,0,89.717-30.289,98.424-43.471c24.673,8.46,55.39,23.31,72.708,47.956c10.718,15.254,11.344,27.458,11.368,28.096L425,470
			L425,470z"/>
		<path style="fill:#231F20;" d="M242.5,235h20v-15H250v-17.5h-15v25C235,231.642,238.357,235,242.5,235z"/>
	</g>
</g>
<g>
</g>
<g>
</g>
<g>
</g>
<g>
</g>
<g>
</g>
<g>
</g>
<g>
</g>
<g>
</g>
<g>
</g>
<g>
</g>
<g>
</g>
<g>
</g>
<g>
</g>
<g>
</g>
<g>
</g>
</svg>
